<?xml version="1.0" encoding="UTF-8" standalone="yes"?>
<!DOCTYPE svg PUBLIC "-//W3C//DTD SVG 1.0//EN" "http://www.w3.org/TR/2001/REC-SVG-20010904/DTD/svg10.dtd">
<svg height="400" width="400" xmlns="http://www.w3.org/2000/svg" xmlns:svg="http://www.w3.org/2000/svg" xmlns:xlink="http://www.w3.org/1999/xlink">
	<g transform="scale(17.8418256841119, -17.8418256841119) translate(9.6396888520908,-11.2096047248099)">
		<line stroke="blue" stroke-width="0.109898188024086" x1="0" x2="0.298647196059745" y1="0" y2="0.0969837733110647" />
		<line stroke="blue" stroke-width="0.109898188024086" x1="0.298647196059745" x2="0.508180225660484" y1="0.0969837733110647" y2="0.368967286148324" />
		<line stroke="blue" stroke-width="0.109898188024086" x1="0.508180225660484" x2="0.554057769972155" y1="0.368967286148324" y2="0.761829369041049" />
		<line stroke="blue" stroke-width="0.109898188024086" x1="0.554057769972155" x2="0.388886253199622" y1="0.761829369041049" y2="1.19427948239613" />
		<line stroke="blue" stroke-width="0.109898188024086" x1="0.388886253199622" x2="0.00125023293585122" y1="1.19427948239613" y2="1.56999950220298" />
		<line stroke="blue" stroke-width="0.109898188024086" x1="0.00125023293585122" x2="-0.580475530927738" y1="1.56999950220298" y2="1.79234599282453" />
		<line stroke="blue" stroke-width="0.109898188024086" x1="-0.580475530927738" x2="-1.28996872085544" y1="1.79234599282453" y2="1.77965859063321" />
		<line stroke="blue" stroke-width="0.109898188024086" x1="-1.28996872085544" x2="-2.03036777730051" y1="1.77965859063321" y2="1.4791046916631" />
		<line stroke="blue" stroke-width="0.109898188024086" x1="-2.03036777730051" x2="-2.68643120223884" y1="1.4791046916631" y2="0.87713362473319" />
		<line stroke="blue" stroke-width="0.109898188024086" x1="-2.68643120223884" x2="-3.13999601762447" y1="0.87713362473319" y2="0.00500093015776864" />
		<line stroke="blue" stroke-width="0.109898188024086" x1="-3.13999601762447" x2="-3.28681406661462" y1="0.00500093015776864" y2="-1.06158809879552" />
		<line stroke="blue" stroke-width="0.109898188024086" x1="-3.28681406661462" x2="-3.05260330784323" y1="-1.06158809879552" y2="-2.20894478087266" />
		<line stroke="blue" stroke-width="0.109898188024086" x1="-3.05260330784323" x2="-2.40617172051712" y1="-2.20894478087266" y2="-3.29743258481256" />
		<line stroke="blue" stroke-width="0.109898188024086" x1="-2.40617172051712" x2="-1.36775741440323" y1="-3.29743258481256" y2="-4.17780512414653" />
		<line stroke="blue" stroke-width="0.109898188024086" x1="-1.36775741440323" x2="-0.011252086908846" y1="-4.17780512414653" y2="-4.70998655948615" />
		<line stroke="blue" stroke-width="0.109898188024086" x1="-0.011252086908846" x2="1.54032055907675" y1="-4.70998655948615" y2="-4.78204857517001" />
		<line stroke="blue" stroke-width="0.109898188024086" x1="1.54032055907675" x2="3.12589371549165" y1="-4.78204857517001" y2="-4.32701195739621" />
		<line stroke="blue" stroke-width="0.109898188024086" x1="3.12589371549165" x2="4.56302137914001" y1="-4.32701195739621" y2="-3.33525709556418" />
		<line stroke="blue" stroke-width="0.109898188024086" x1="4.56302137914001" x2="5.66839840978271" y1="-3.33525709556418" y2="-1.86075669230902" />
		<line stroke="blue" stroke-width="0.109898188024086" x1="5.66839840978271" x2="6.279968141016" y1="-1.86075669230902" y2="-0.0200036952609066" />
		<line stroke="blue" stroke-width="0.109898188024086" x1="6.279968141016" x2="6.27804667525734" y1="-0.0200036952609066" y2="2.01667199695199" />
		<line stroke="blue" stroke-width="0.109898188024086" x1="6.27804667525734" x2="5.60288211753992" y1="2.01667199695199" y2="4.04081377657414" />
		<line stroke="blue" stroke-width="0.109898188024086" x1="5.60288211753992" x2="4.26635905327347" y1="4.04081377657414" y2="5.82713174971628" />
		<line stroke="blue" stroke-width="0.109898188024086" x1="4.26635905327347" x2="2.35613052553655" y1="5.82713174971628" y2="7.15820822179928" />
		<line stroke="blue" stroke-width="0.109898188024086" x1="2.35613052553655" x2="0.031255744114526" y1="7.15820822179928" y2="7.84993777545146" />
		<line stroke="blue" stroke-width="0.109898188024086" x1="0.031255744114526" x2="-2.49064150062094" y1="7.84993777545146" y2="7.77480552267288" />
		<line stroke="blue" stroke-width="0.109898188024086" x1="-2.49064150062094" x2="-4.95370321855378" y1="7.77480552267288" y2="6.88021136466678" />
		<line stroke="blue" stroke-width="0.109898188024086" x1="-4.95370321855378" x2="-7.08976128784804" y1="6.88021136466678" y2="5.19947582755524" />
		<line stroke="blue" stroke-width="0.109898188024086" x1="-7.08976128784804" x2="-8.64723172383952" y1="5.19947582755524" y2="2.85387797815944" />
		<line stroke="blue" stroke-width="0.109898188024086" x1="-8.64723172383952" x2="-9.41989247604263" y1="2.85387797815944" y2="0.0450082191990106" />
		<line stroke="blue" stroke-width="0.109898188024086" x1="-9.41989247604263" x2="-9.27232227224554" y1="0.0450082191990106" y2="-2.96222816130346" />
		<line stroke="blue" stroke-width="0.109898188024086" x1="-9.27232227224554" x2="-8.15899727331647" y1="-2.96222816130346" y2="-5.86456029843794" />
		<line stroke="blue" stroke-width="0.109898188024086" x1="-8.15899727331647" x2="-6.13460564976271" y1="-5.86456029843794" y2="-8.35090758671771" />
		<line stroke="blue" stroke-width="0.109898188024086" x1="-6.13460564976271" x2="-3.35399811124" y1="-8.35090758671771" y2="-10.1354660805411" />
		<line stroke="blue" stroke-width="0.109898188024086" x1="-3.35399811124" x2="-0.0612611030724502" y1="-10.1354660805411" y2="-10.9898292560554" />
		<line stroke="blue" stroke-width="0.109898188024086" x1="-0.0612611030724502" x2="3.43143107324047" y1="-10.9898292560554" y2="-10.7705940778399" />
		<line stroke="blue" stroke-width="0.109898188024086" x1="3.43143107324047" x2="6.77338327580962" y1="-10.7705940778399" y2="-9.43923741617841" />
		<line stroke="blue" stroke-width="0.109898188024086" x1="6.77338327580962" x2="9.61056824138599" y1="-9.43923741617841" y2="-7.07174674869392" />
		<line stroke="blue" stroke-width="0.109898188024086" x1="9.61056824138599" x2="11.622908457539" y1="-7.07174674869392" y2="-3.85648998283017" />
		<line stroke="blue" stroke-width="0.109898188024086" x1="11.622908457539" x2="12.5597451287745" y1="-3.85648998283017" y2="-0.0800143751217108" />
		<circle cx="0" cy="0" fill="red" r="0.219796376048171" />
		<circle cx="0.298647196059745" cy="0.0969837733110647" fill="red" r="0.219796376048171" />
		<circle cx="0.508180225660484" cy="0.368967286148324" fill="red" r="0.219796376048171" />
		<circle cx="0.554057769972155" cy="0.761829369041049" fill="red" r="0.219796376048171" />
		<circle cx="0.388886253199622" cy="1.19427948239613" fill="red" r="0.219796376048171" />
		<circle cx="0.00125023293585122" cy="1.56999950220298" fill="red" r="0.219796376048171" />
		<circle cx="-0.580475530927738" cy="1.79234599282453" fill="red" r="0.219796376048171" />
		<circle cx="-1.28996872085544" cy="1.77965859063321" fill="red" r="0.219796376048171" />
		<circle cx="-2.03036777730051" cy="1.4791046916631" fill="red" r="0.219796376048171" />
		<circle cx="-2.68643120223884" cy="0.87713362473319" fill="red" r="0.219796376048171" />
		<circle cx="-3.13999601762447" cy="0.00500093015776864" fill="red" r="0.219796376048171" />
		<circle cx="-3.28681406661462" cy="-1.06158809879552" fill="red" r="0.219796376048171" />
		<circle cx="-3.05260330784323" cy="-2.20894478087266" fill="red" r="0.219796376048171" />
		<circle cx="-2.40617172051712" cy="-3.29743258481256" fill="red" r="0.219796376048171" />
		<circle cx="-1.36775741440323" cy="-4.17780512414653" fill="red" r="0.219796376048171" />
		<circle cx="-0.011252086908846" cy="-4.70998655948615" fill="red" r="0.219796376048171" />
		<circle cx="1.54032055907675" cy="-4.78204857517001" fill="red" r="0.219796376048171" />
		<circle cx="3.12589371549165" cy="-4.32701195739621" fill="red" r="0.219796376048171" />
		<circle cx="4.56302137914001" cy="-3.33525709556418" fill="red" r="0.219796376048171" />
		<circle cx="5.66839840978271" cy="-1.86075669230902" fill="red" r="0.219796376048171" />
		<circle cx="6.279968141016" cy="-0.0200036952609066" fill="red" r="0.219796376048171" />
		<circle cx="6.27804667525734" cy="2.01667199695199" fill="red" r="0.219796376048171" />
		<circle cx="5.60288211753992" cy="4.04081377657414" fill="red" r="0.219796376048171" />
		<circle cx="4.26635905327347" cy="5.82713174971628" fill="red" r="0.219796376048171" />
		<circle cx="2.35613052553655" cy="7.15820822179928" fill="red" r="0.219796376048171" />
		<circle cx="0.031255744114526" cy="7.84993777545146" fill="red" r="0.219796376048171" />
		<circle cx="-2.49064150062094" cy="7.77480552267288" fill="red" r="0.219796376048171" />
		<circle cx="-4.95370321855378" cy="6.88021136466678" fill="red" r="0.219796376048171" />
		<circle cx="-7.08976128784804" cy="5.19947582755524" fill="red" r="0.219796376048171" />
		<circle cx="-8.64723172383952" cy="2.85387797815944" fill="red" r="0.219796376048171" />
		<circle cx="-9.41989247604263" cy="0.0450082191990106" fill="red" r="0.219796376048171" />
		<circle cx="-9.27232227224554" cy="-2.96222816130346" fill="red" r="0.219796376048171" />
		<circle cx="-8.15899727331647" cy="-5.86456029843794" fill="red" r="0.219796376048171" />
		<circle cx="-6.13460564976271" cy="-8.35090758671771" fill="red" r="0.219796376048171" />
		<circle cx="-3.35399811124" cy="-10.1354660805411" fill="red" r="0.219796376048171" />
		<circle cx="-0.0612611030724502" cy="-10.9898292560554" fill="red" r="0.219796376048171" />
		<circle cx="3.43143107324047" cy="-10.7705940778399" fill="red" r="0.219796376048171" />
		<circle cx="6.77338327580962" cy="-9.43923741617841" fill="red" r="0.219796376048171" />
		<circle cx="9.61056824138599" cy="-7.07174674869392" fill="red" r="0.219796376048171" />
		<circle cx="11.622908457539" cy="-3.85648998283017" fill="red" r="0.219796376048171" />
		<circle cx="12.5597451287745" cy="-0.0800143751217108" fill="red" r="0.219796376048171" />
	</g>
	<!--
	Generated using the Perl SVG Module V2.86
	by Ronan Oger
	Info: http://www.roitsystems.com/
	-->
</svg>
