<?xml version="1.0" encoding="UTF-8" standalone="yes"?>
<!DOCTYPE svg PUBLIC "-//W3C//DTD SVG 1.0//EN" "http://www.w3.org/TR/2001/REC-SVG-20010904/DTD/svg10.dtd">
<svg height="400" width="400" xmlns="http://www.w3.org/2000/svg" xmlns:svg="http://www.w3.org/2000/svg" xmlns:xlink="http://www.w3.org/1999/xlink">
	<g transform="scale(1.03199174406605, -1.03199174406605) translate(-9.2,-435.8)">
		<circle cx="333" cy="129" fill="red" r="3.8" />
		<circle cx="39" cy="189" fill="red" r="3.8" />
		<circle cx="140" cy="156" fill="red" r="3.8" />
		<circle cx="292" cy="134" fill="red" r="3.8" />
		<circle cx="393" cy="52" fill="red" r="3.8" />
		<circle cx="160" cy="166" fill="red" r="3.8" />
		<circle cx="362" cy="122" fill="red" r="3.8" />
		<circle cx="13" cy="193" fill="red" r="3.8" />
		<circle cx="341" cy="104" fill="red" r="3.8" />
		<circle cx="320" cy="113" fill="red" r="3.8" />
		<circle cx="109" cy="177" fill="red" r="3.8" />
		<circle cx="203" cy="152" fill="red" r="3.8" />
		<circle cx="343" cy="100" fill="red" r="3.8" />
		<circle cx="225" cy="110" fill="red" r="3.8" />
		<circle cx="23" cy="186" fill="red" r="3.8" />
		<circle cx="282" cy="102" fill="red" r="3.8" />
		<circle cx="284" cy="98" fill="red" r="3.8" />
		<circle cx="205" cy="133" fill="red" r="3.8" />
		<circle cx="297" cy="114" fill="red" r="3.8" />
		<circle cx="292" cy="126" fill="red" r="3.8" />
		<circle cx="339" cy="112" fill="red" r="3.8" />
		<circle cx="327" cy="79" fill="red" r="3.8" />
		<circle cx="253" cy="136" fill="red" r="3.8" />
		<circle cx="61" cy="169" fill="red" r="3.8" />
		<circle cx="128" cy="176" fill="red" r="3.8" />
		<circle cx="346" cy="72" fill="red" r="3.8" />
		<circle cx="316" cy="103" fill="red" r="3.8" />
		<circle cx="124" cy="162" fill="red" r="3.8" />
		<circle cx="65" cy="181" fill="red" r="3.8" />
		<circle cx="159" cy="137" fill="red" r="3.8" />
		<circle cx="212" cy="116" fill="red" r="3.8" />
		<circle cx="337" cy="86" fill="red" r="3.8" />
		<circle cx="215" cy="136" fill="red" r="3.8" />
		<circle cx="153" cy="137" fill="red" r="3.8" />
		<circle cx="390" cy="104" fill="red" r="3.8" />
		<circle cx="100" cy="180" fill="red" r="3.8" />
		<circle cx="76" cy="188" fill="red" r="3.8" />
		<circle cx="77" cy="181" fill="red" r="3.8" />
		<circle cx="69" cy="195" fill="red" r="3.8" />
		<circle cx="92" cy="186" fill="red" r="3.8" />
		<circle cx="275" cy="96" fill="red" r="3.8" />
		<circle cx="250" cy="147" fill="red" r="3.8" />
		<circle cx="34" cy="174" fill="red" r="3.8" />
		<circle cx="213" cy="134" fill="red" r="3.8" />
		<circle cx="186" cy="129" fill="red" r="3.8" />
		<circle cx="189" cy="154" fill="red" r="3.8" />
		<circle cx="361" cy="82" fill="red" r="3.8" />
		<circle cx="363" cy="89" fill="red" r="3.8" />
		<line stroke="blue" stroke-width="1.9" x1="13.000000" x2="393.000000" y1="196.232838" y2="82.249368" />
	</g>
	<!--
	Generated using the Perl SVG Module V2.86
	by Ronan Oger
	Info: http://www.roitsystems.com/
	-->
</svg>
