<?xml version="1.0"?>
<!-- Created by MetaPost 2.11 on 2026.04.13:1059 -->
<svg version="1.1" xmlns="http://www.w3.org/2000/svg" xmlns:xlink="http://www.w3.org/1999/xlink" width="481.315018" height="471.931473" viewBox="0 0 481.315018 471.931473">
<!-- Original BoundingBox: -151.365799 -141.982254 329.949219 329.949219 -->
  <defs>
    <g transform="scale(0.009963,0.009963)" id="GLYPHcmr10_48">
      <path style="fill-rule: evenodd;" d="M460.000000 -320.000000C460.000000 -400.000000,455.000000 -480.000000,420.000000 -554.000000C374.000000 -650.000000,292.000000 -666.000000,250.000000 -666.000000C190.000000 -666.000000,117.000000 -640.000000,76.000000 -547.000000C44.000000 -478.000000,39.000000 -400.000000,39.000000 -320.000000C39.000000 -245.000000,43.000000 -155.000000,84.000000 -79.000000C127.000000 2.000000,200.000000 22.000000,249.000000 22.000000C303.000000 22.000000,379.000000 1.000000,423.000000 -94.000000C455.000000 -163.000000,460.000000 -241.000000,460.000000 -320.000000M249.000000 -0.000000C210.000000 -0.000000,151.000000 -25.000000,133.000000 -121.000000C122.000000 -181.000000,122.000000 -273.000000,122.000000 -332.000000C122.000000 -396.000000,122.000000 -462.000000,130.000000 -516.000000C149.000000 -635.000000,224.000000 -644.000000,249.000000 -644.000000C282.000000 -644.000000,348.000000 -626.000000,367.000000 -527.000000C377.000000 -471.000000,377.000000 -395.000000,377.000000 -332.000000C377.000000 -257.000000,377.000000 -189.000000,366.000000 -125.000000C351.000000 -30.000000,294.000000 -0.000000,249.000000 -0.000000"></path>
    </g>
    <g transform="scale(0.009963,0.009963)" id="GLYPHcmmi10_112">
      <path style="fill-rule: evenodd;" d="M45.000000 122.000000C37.000000 156.000000,35.000000 163.000000,-9.000000 163.000000C-21.000000 163.000000,-32.000000 163.000000,-32.000000 182.000000C-32.000000 190.000000,-27.000000 194.000000,-19.000000 194.000000C8.000000 194.000000,37.000000 191.000000,65.000000 191.000000C98.000000 191.000000,132.000000 194.000000,164.000000 194.000000C169.000000 194.000000,182.000000 194.000000,182.000000 174.000000C182.000000 163.000000,172.000000 163.000000,158.000000 163.000000C108.000000 163.000000,108.000000 156.000000,108.000000 147.000000C108.000000 135.000000,150.000000 -28.000000,157.000000 -53.000000C170.000000 -24.000000,198.000000 11.000000,249.000000 11.000000C365.000000 11.000000,490.000000 -135.000000,490.000000 -282.000000C490.000000 -376.000000,433.000000 -442.000000,357.000000 -442.000000C307.000000 -442.000000,259.000000 -406.000000,226.000000 -367.000000C216.000000 -421.000000,173.000000 -442.000000,136.000000 -442.000000C90.000000 -442.000000,71.000000 -403.000000,62.000000 -385.000000C44.000000 -351.000000,31.000000 -291.000000,31.000000 -288.000000C31.000000 -278.000000,41.000000 -278.000000,43.000000 -278.000000C53.000000 -278.000000,54.000000 -279.000000,60.000000 -301.000000C77.000000 -372.000000,97.000000 -420.000000,133.000000 -420.000000C150.000000 -420.000000,164.000000 -412.000000,164.000000 -374.000000C164.000000 -351.000000,161.000000 -340.000000,157.000000 -323.000000M221.000000 -312.000000C228.000000 -339.000000,255.000000 -367.000000,273.000000 -382.000000C308.000000 -413.000000,337.000000 -420.000000,354.000000 -420.000000C394.000000 -420.000000,418.000000 -385.000000,418.000000 -326.000000C418.000000 -267.000000,385.000000 -152.000000,367.000000 -114.000000C333.000000 -44.000000,285.000000 -11.000000,248.000000 -11.000000C182.000000 -11.000000,169.000000 -94.000000,169.000000 -100.000000C169.000000 -102.000000,169.000000 -104.000000,172.000000 -116.000000"></path>
    </g>
    <g transform="scale(0.009963,0.009963)" id="GLYPHcmmi10_113">
      <path style="fill-rule: evenodd;" d="M452.000000 -431.000000C452.000000 -435.000000,449.000000 -441.000000,442.000000 -441.000000C431.000000 -441.000000,391.000000 -401.000000,374.000000 -372.000000C352.000000 -426.000000,313.000000 -442.000000,281.000000 -442.000000C163.000000 -442.000000,40.000000 -294.000000,40.000000 -149.000000C40.000000 -51.000000,99.000000 11.000000,172.000000 11.000000C215.000000 11.000000,254.000000 -13.000000,290.000000 -49.000000C281.000000 -14.000000,248.000000 121.000000,245.000000 130.000000C237.000000 158.000000,229.000000 162.000000,173.000000 163.000000C160.000000 163.000000,150.000000 163.000000,150.000000 183.000000C150.000000 184.000000,150.000000 194.000000,163.000000 194.000000C195.000000 194.000000,230.000000 191.000000,263.000000 191.000000C297.000000 191.000000,333.000000 194.000000,366.000000 194.000000C371.000000 194.000000,384.000000 194.000000,384.000000 174.000000C384.000000 163.000000,374.000000 163.000000,358.000000 163.000000C310.000000 163.000000,310.000000 156.000000,310.000000 147.000000C310.000000 140.000000,312.000000 134.000000,314.000000 125.000000M175.000000 -11.000000C115.000000 -11.000000,111.000000 -88.000000,111.000000 -105.000000C111.000000 -153.000000,140.000000 -262.000000,157.000000 -304.000000C188.000000 -378.000000,240.000000 -420.000000,281.000000 -420.000000C346.000000 -420.000000,360.000000 -339.000000,360.000000 -332.000000C360.000000 -326.000000,305.000000 -107.000000,302.000000 -103.000000C287.000000 -75.000000,231.000000 -11.000000,175.000000 -11.000000"></path>
    </g>
    <g transform="scale(0.009963,0.009963)" id="GLYPHcmmi10_114">
      <path style="fill-rule: evenodd;" d="M88.000000 -59.000000C85.000000 -44.000000,79.000000 -21.000000,79.000000 -16.000000C79.000000 2.000000,93.000000 11.000000,108.000000 11.000000C120.000000 11.000000,138.000000 3.000000,145.000000 -17.000000C147.000000 -21.000000,181.000000 -157.000000,185.000000 -175.000000C193.000000 -208.000000,211.000000 -278.000000,217.000000 -305.000000C221.000000 -318.000000,249.000000 -365.000000,273.000000 -387.000000C281.000000 -394.000000,310.000000 -420.000000,353.000000 -420.000000C379.000000 -420.000000,394.000000 -408.000000,395.000000 -408.000000C365.000000 -403.000000,343.000000 -379.000000,343.000000 -353.000000C343.000000 -337.000000,354.000000 -318.000000,381.000000 -318.000000C408.000000 -318.000000,436.000000 -341.000000,436.000000 -377.000000C436.000000 -412.000000,404.000000 -442.000000,353.000000 -442.000000C288.000000 -442.000000,244.000000 -393.000000,225.000000 -365.000000C217.000000 -410.000000,181.000000 -442.000000,134.000000 -442.000000C88.000000 -442.000000,69.000000 -403.000000,60.000000 -385.000000C42.000000 -351.000000,29.000000 -291.000000,29.000000 -288.000000C29.000000 -278.000000,39.000000 -278.000000,41.000000 -278.000000C51.000000 -278.000000,52.000000 -279.000000,58.000000 -301.000000C75.000000 -372.000000,95.000000 -420.000000,131.000000 -420.000000C148.000000 -420.000000,162.000000 -412.000000,162.000000 -374.000000C162.000000 -353.000000,159.000000 -342.000000,146.000000 -290.000000"></path>
    </g>
    <g transform="scale(0.009963,0.009963)" id="GLYPHcmmi10_115">
      <path style="fill-rule: evenodd;" d="M391.000000 -374.000000C363.000000 -373.000000,343.000000 -351.000000,343.000000 -329.000000C343.000000 -315.000000,352.000000 -300.000000,374.000000 -300.000000C396.000000 -300.000000,420.000000 -317.000000,420.000000 -356.000000C420.000000 -401.000000,377.000000 -442.000000,301.000000 -442.000000C169.000000 -442.000000,132.000000 -340.000000,132.000000 -296.000000C132.000000 -218.000000,206.000000 -203.000000,235.000000 -197.000000C287.000000 -187.000000,339.000000 -176.000000,339.000000 -121.000000C339.000000 -95.000000,316.000000 -11.000000,196.000000 -11.000000C182.000000 -11.000000,105.000000 -11.000000,82.000000 -64.000000C120.000000 -59.000000,145.000000 -89.000000,145.000000 -117.000000C145.000000 -140.000000,129.000000 -152.000000,108.000000 -152.000000C82.000000 -152.000000,52.000000 -131.000000,52.000000 -86.000000C52.000000 -29.000000,109.000000 11.000000,195.000000 11.000000C357.000000 11.000000,396.000000 -110.000000,396.000000 -155.000000C396.000000 -191.000000,377.000000 -216.000000,365.000000 -228.000000C338.000000 -256.000000,309.000000 -261.000000,265.000000 -270.000000C229.000000 -278.000000,189.000000 -285.000000,189.000000 -330.000000C189.000000 -359.000000,213.000000 -420.000000,301.000000 -420.000000C326.000000 -420.000000,376.000000 -413.000000,391.000000 -374.000000"></path>
    </g>
  </defs>
  <path d="M293.098053 329.949219C293.098053 292.357819,278.162704 256.310562,251.583588 229.731430C225.004456 203.152313,188.957199 188.216965,151.365799 188.216965C113.774399 188.216965,77.727142 203.152313,51.148010 229.731430C24.568893 256.310562,9.633545 292.357819,9.633545 329.949219C9.633545 367.540619,24.568893 403.587875,51.148010 430.167007C77.727142 456.746124,113.774399 471.681473,151.365799 471.681473C188.957199 471.681473,225.004456 456.746124,251.583588 430.167007C278.162704 403.587875,293.098053 367.540619,293.098053 329.949219Z" style="stroke:rgb(0.000000%,0.000000%,0.000000%); stroke-width: 0.500000;stroke-linecap: round;stroke-linejoin: round;stroke-miterlimit: 10.000000;fill: none;"></path>
  <path d="M156.347107 329.949219C156.347107 328.628036,155.822189 327.361115,154.888046 326.426971C153.953903 325.492828,152.686981 324.967911,151.365799 324.967911C150.044617 324.967911,148.777695 325.492828,147.843552 326.426971C146.909409 327.361115,146.384491 328.628036,146.384491 329.949219C146.384491 331.270401,146.909409 332.537323,147.843552 333.471466C148.777695 334.405609,150.044617 334.930527,151.365799 334.930527C152.686981 334.930527,153.953903 334.405609,154.888046 333.471466C155.822189 332.537323,156.347107 331.270401,156.347107 329.949219Z" style="fill: rgb(0.000000%,0.000000%,0.000000%);stroke: none;"></path>
  <path d="M256.564896 229.731430C256.564896 228.410248,256.039978 227.143326,255.105835 226.209183C254.171692 225.275040,252.904770 224.750122,251.583588 224.750122C250.262405 224.750122,248.995483 225.275040,248.061340 226.209183C247.127197 227.143326,246.602280 228.410248,246.602280 229.731430C246.602280 231.052612,247.127197 232.319534,248.061340 233.253677C248.995483 234.187820,250.262405 234.712738,251.583588 234.712738C252.904770 234.712738,254.171692 234.187820,255.105835 233.253677C256.039978 232.319534,256.564896 231.052612,256.564896 229.731430Z" style="fill: rgb(0.000000%,0.000000%,0.000000%);stroke: none;"></path>
  <g transform="matrix(2.000000,-0.000000,-0.000000,2.000000,153.465790 344.889999)" style="fill: rgb(0.000000%,0.000000%,0.000000%);">
    <use xlink:href="#GLYPHcmr10_48"></use>
  </g>
  <g transform="matrix(2.000000,-0.000000,-0.000000,2.000000,255.688370 238.405640)" style="fill: rgb(0.000000%,0.000000%,0.000000%);">
    <use xlink:href="#GLYPHcmmi10_112"></use>
  </g>
  <path d="M134.041412 189.981705C134.041412 188.660522,133.516495 187.393600,132.582352 186.459457C131.648209 185.525314,130.381287 185.000397,129.060104 185.000397C127.738922 185.000397,126.472000 185.525314,125.537857 186.459457C124.603714 187.393600,124.078796 188.660522,124.078796 189.981705C124.078796 191.302887,124.603714 192.569809,125.537857 193.503952C126.472000 194.438095,127.738922 194.963013,129.060104 194.963013C130.381287 194.963013,131.648209 194.438095,132.582352 193.503952C133.516495 192.569809,134.041412 191.302887,134.041412 189.981705Z" style="fill: rgb(0.000000%,0.000000%,0.000000%);stroke: none;"></path>
  <g transform="matrix(2.000000,-0.000000,-0.000000,2.000000,130.713882 181.207382)" style="fill: rgb(0.000000%,0.000000%,0.000000%);">
    <use xlink:href="#GLYPHcmmi10_113"></use>
  </g>
  <path d="M257.870209 189.981705C257.870209 155.817627,244.296555 123.056900,220.140732 98.901077C195.984909 74.745255,163.224182 61.171600,129.060104 61.171600C94.896027 61.171600,62.135300 74.745255,37.979477 98.901077C13.823654 123.056900,0.250000 155.817627,0.250000 189.981705C0.250000 224.145782,13.823654 256.906509,37.979477 281.062332C62.135300 305.218155,94.896027 318.791809,129.060104 318.791809C163.224182 318.791809,195.984909 305.218155,220.140732 281.062332C244.296555 256.906509,257.870209 224.145782,257.870209 189.981705Z" style="stroke:rgb(0.000000%,0.000000%,0.000000%); stroke-width: 0.500000;stroke-linecap: round;stroke-linejoin: round;stroke-miterlimit: 10.000000;fill: none;"></path>
  <path d="M29.942719 265.843994C29.942719 264.522812,29.417801 263.255890,28.483658 262.321747C27.549515 261.387604,26.282593 260.862686,24.961411 260.862686C23.640228 260.862686,22.373306 261.387604,21.439163 262.321747C20.505020 263.255890,19.980103 264.522812,19.980103 265.843994C19.980103 267.165176,20.505020 268.432098,21.439163 269.366241C22.373306 270.300385,23.640228 270.825302,24.961411 270.825302C26.282593 270.825302,27.549515 270.300385,28.483658 269.366241C29.417801 268.432098,29.942719 267.165176,29.942719 265.843994Z" style="fill: rgb(0.000000%,0.000000%,0.000000%);stroke: none;"></path>
  <g transform="matrix(2.000000,-0.000000,-0.000000,2.000000,10.789795 262.461624)" style="fill: rgb(0.000000%,0.000000%,0.000000%);">
    <use xlink:href="#GLYPHcmmi10_114"></use>
  </g>
  <path d="M481.065018 229.731430C481.065018 168.866470,456.882904 110.501648,413.848129 67.466888C370.813370 24.432114,312.448547 0.250000,251.583588 0.250000C190.718628 0.250000,132.353806 24.432114,89.319046 67.466888C46.284271 110.501648,22.102158 168.866470,22.102158 229.731430C22.102158 290.596390,46.284271 348.961212,89.319046 391.995972C132.353806 435.030746,190.718628 459.212860,251.583588 459.212860C312.448547 459.212860,370.813370 435.030746,413.848129 391.995972C456.882904 348.961212,481.065018 290.596390,481.065018 229.731430Z" style="stroke:rgb(0.000000%,0.000000%,0.000000%); stroke-width: 0.500000;stroke-linecap: round;stroke-linejoin: round;stroke-miterlimit: 10.000000;fill: none;"></path>
  <path d="M94.316483 67.450928C94.316483 66.129745,93.791565 64.862823,92.857422 63.928680C91.923279 62.994537,90.656357 62.469620,89.335175 62.469620C88.013992 62.469620,86.747070 62.994537,85.812927 63.928680C84.878784 64.862823,84.353867 66.129745,84.353867 67.450928C84.353867 68.772110,84.878784 70.039032,85.812927 70.973175C86.747070 71.907318,88.013992 72.432236,89.335175 72.432236C90.656357 72.432236,91.923279 71.907318,92.857422 70.973175C93.791565 70.039032,94.316483 68.772110,94.316483 67.450928Z" style="fill: rgb(0.000000%,0.000000%,0.000000%);stroke: none;"></path>
  <g transform="matrix(2.000000,-0.000000,-0.000000,2.000000,76.654312 60.099854)" style="fill: rgb(0.000000%,0.000000%,0.000000%);">
    <use xlink:href="#GLYPHcmmi10_115"></use>
  </g>
</svg>
