<?xml version="1.0"?>
<!-- Created by MetaPost 2.11 on 2026.04.13:1059 -->
<svg version="1.1" xmlns="http://www.w3.org/2000/svg" xmlns:xlink="http://www.w3.org/1999/xlink" width="254.923569" height="293.369156" viewBox="0 0 254.923569 293.369156">
<!-- Original BoundingBox: -140.576004 -14.940781 114.347565 278.428375 -->
  <defs>
    <g transform="scale(0.009963,0.009963)" id="GLYPHcmr10_48">
      <path style="fill-rule: evenodd;" d="M460.000000 -320.000000C460.000000 -400.000000,455.000000 -480.000000,420.000000 -554.000000C374.000000 -650.000000,292.000000 -666.000000,250.000000 -666.000000C190.000000 -666.000000,117.000000 -640.000000,76.000000 -547.000000C44.000000 -478.000000,39.000000 -400.000000,39.000000 -320.000000C39.000000 -245.000000,43.000000 -155.000000,84.000000 -79.000000C127.000000 2.000000,200.000000 22.000000,249.000000 22.000000C303.000000 22.000000,379.000000 1.000000,423.000000 -94.000000C455.000000 -163.000000,460.000000 -241.000000,460.000000 -320.000000M249.000000 -0.000000C210.000000 -0.000000,151.000000 -25.000000,133.000000 -121.000000C122.000000 -181.000000,122.000000 -273.000000,122.000000 -332.000000C122.000000 -396.000000,122.000000 -462.000000,130.000000 -516.000000C149.000000 -635.000000,224.000000 -644.000000,249.000000 -644.000000C282.000000 -644.000000,348.000000 -626.000000,367.000000 -527.000000C377.000000 -471.000000,377.000000 -395.000000,377.000000 -332.000000C377.000000 -257.000000,377.000000 -189.000000,366.000000 -125.000000C351.000000 -30.000000,294.000000 -0.000000,249.000000 -0.000000"></path>
    </g>
    <g transform="scale(0.009963,0.009963)" id="GLYPHcmmi10_11">
      <path style="fill-rule: evenodd;" d="M477.000000 -236.000000C477.000000 -393.000000,384.000000 -442.000000,310.000000 -442.000000C173.000000 -442.000000,41.000000 -299.000000,41.000000 -158.000000C41.000000 -65.000000,101.000000 11.000000,203.000000 11.000000C266.000000 11.000000,338.000000 -12.000000,414.000000 -73.000000C427.000000 -20.000000,460.000000 11.000000,505.000000 11.000000C558.000000 11.000000,589.000000 -44.000000,589.000000 -60.000000C589.000000 -67.000000,583.000000 -70.000000,577.000000 -70.000000C570.000000 -70.000000,567.000000 -67.000000,564.000000 -60.000000C546.000000 -11.000000,510.000000 -11.000000,508.000000 -11.000000C477.000000 -11.000000,477.000000 -89.000000,477.000000 -113.000000C477.000000 -134.000000,477.000000 -136.000000,487.000000 -148.000000C581.000000 -266.000000,602.000000 -382.000000,602.000000 -383.000000C602.000000 -385.000000,601.000000 -393.000000,590.000000 -393.000000C580.000000 -393.000000,580.000000 -390.000000,575.000000 -372.000000C557.000000 -309.000000,524.000000 -233.000000,477.000000 -174.000000M410.000000 -99.000000C322.000000 -22.000000,245.000000 -11.000000,205.000000 -11.000000C145.000000 -11.000000,115.000000 -56.000000,115.000000 -120.000000C115.000000 -169.000000,141.000000 -277.000000,173.000000 -328.000000C220.000000 -401.000000,274.000000 -420.000000,309.000000 -420.000000C408.000000 -420.000000,408.000000 -289.000000,408.000000 -211.000000C408.000000 -174.000000,408.000000 -116.000000,410.000000 -99.000000"></path>
    </g>
    <g transform="scale(0.009963,0.009963)" id="GLYPHcmmi10_12">
      <path style="fill-rule: evenodd;" d="M575.000000 -569.000000C575.000000 -644.000000,520.000000 -706.000000,439.000000 -706.000000C381.000000 -706.000000,353.000000 -690.000000,318.000000 -664.000000C263.000000 -624.000000,208.000000 -527.000000,189.000000 -451.000000L30.000000 184.000000C29.000000 188.000000,34.000000 194.000000,42.000000 194.000000C50.000000 194.000000,53.000000 192.000000,54.000000 189.000000L124.000000 -87.000000C143.000000 -27.000000,187.000000 10.000000,260.000000 10.000000C333.000000 10.000000,408.000000 -25.000000,453.000000 -69.000000C501.000000 -115.000000,533.000000 -179.000000,533.000000 -253.000000C533.000000 -325.000000,496.000000 -377.000000,460.000000 -402.000000C518.000000 -435.000000,575.000000 -497.000000,575.000000 -569.000000M395.000000 -403.000000C382.000000 -398.000000,371.000000 -396.000000,347.000000 -396.000000C333.000000 -396.000000,313.000000 -395.000000,303.000000 -400.000000C305.000000 -410.000000,341.000000 -408.000000,352.000000 -408.000000C373.000000 -408.000000,382.000000 -408.000000,395.000000 -403.000000M519.000000 -592.000000C519.000000 -522.000000,481.000000 -450.000000,429.000000 -419.000000C402.000000 -429.000000,382.000000 -431.000000,352.000000 -431.000000C331.000000 -431.000000,275.000000 -432.000000,275.000000 -399.000000C274.000000 -371.000000,326.000000 -374.000000,344.000000 -374.000000C381.000000 -374.000000,396.000000 -375.000000,426.000000 -387.000000C464.000000 -351.000000,469.000000 -320.000000,470.000000 -274.000000C472.000000 -216.000000,448.000000 -141.000000,420.000000 -102.000000C381.000000 -48.000000,314.000000 -12.000000,257.000000 -12.000000C181.000000 -12.000000,143.000000 -70.000000,143.000000 -141.000000C143.000000 -151.000000,143.000000 -166.000000,148.000000 -185.000000L212.000000 -438.000000C234.000000 -524.000000,306.000000 -683.000000,426.000000 -683.000000C484.000000 -683.000000,519.000000 -652.000000,519.000000 -592.000000"></path>
    </g>
    <g transform="scale(0.009963,0.009963)" id="GLYPHcmmi10_13">
      <path style="fill-rule: evenodd;" d="M41.000000 -254.000000C80.000000 -369.000000,189.000000 -370.000000,200.000000 -370.000000C351.000000 -370.000000,362.000000 -195.000000,362.000000 -116.000000C362.000000 -55.000000,357.000000 -38.000000,350.000000 -18.000000C328.000000 55.000000,298.000000 171.000000,298.000000 197.000000C298.000000 208.000000,303.000000 215.000000,311.000000 215.000000C324.000000 215.000000,332.000000 193.000000,343.000000 155.000000C366.000000 71.000000,376.000000 14.000000,380.000000 -17.000000C382.000000 -30.000000,384.000000 -43.000000,388.000000 -56.000000C420.000000 -155.000000,484.000000 -304.000000,524.000000 -383.000000C531.000000 -395.000000,543.000000 -417.000000,543.000000 -421.000000C543.000000 -431.000000,533.000000 -431.000000,531.000000 -431.000000C528.000000 -431.000000,522.000000 -431.000000,519.000000 -424.000000C467.000000 -329.000000,427.000000 -229.000000,387.000000 -128.000000C386.000000 -159.000000,385.000000 -235.000000,346.000000 -332.000000C322.000000 -393.000000,282.000000 -442.000000,213.000000 -442.000000C88.000000 -442.000000,18.000000 -290.000000,18.000000 -259.000000C18.000000 -249.000000,27.000000 -249.000000,37.000000 -249.000000"></path>
    </g>
    <g transform="scale(0.009963,0.009963)" id="GLYPHcmmi10_14">
      <path style="fill-rule: evenodd;" d="M264.000000 -437.000000C139.000000 -407.000000,42.000000 -277.000000,42.000000 -156.000000C42.000000 -60.000000,106.000000 12.000000,200.000000 12.000000C317.000000 12.000000,400.000000 -145.000000,400.000000 -283.000000C400.000000 -374.000000,360.000000 -424.000000,326.000000 -469.000000C290.000000 -514.000000,231.000000 -589.000000,231.000000 -633.000000C231.000000 -655.000000,251.000000 -679.000000,286.000000 -679.000000C316.000000 -679.000000,336.000000 -666.000000,357.000000 -652.000000C377.000000 -640.000000,397.000000 -627.000000,412.000000 -627.000000C437.000000 -627.000000,452.000000 -651.000000,452.000000 -667.000000C452.000000 -689.000000,436.000000 -692.000000,400.000000 -700.000000C348.000000 -711.000000,334.000000 -711.000000,318.000000 -711.000000C240.000000 -711.000000,204.000000 -668.000000,204.000000 -608.000000C204.000000 -554.000000,233.000000 -498.000000,264.000000 -437.000000M276.000000 -415.000000C301.000000 -369.000000,331.000000 -315.000000,331.000000 -243.000000C331.000000 -177.000000,293.000000 -10.000000,200.000000 -10.000000C145.000000 -10.000000,104.000000 -52.000000,104.000000 -128.000000C104.000000 -191.000000,141.000000 -379.000000,276.000000 -415.000000"></path>
    </g>
    <g transform="scale(0.009963,0.009963)" id="GLYPHcmmi10_15">
      <path style="fill-rule: evenodd;" d="M298.000000 -226.000000C314.000000 -226.000000,332.000000 -226.000000,332.000000 -243.000000C332.000000 -257.000000,320.000000 -257.000000,303.000000 -257.000000L141.000000 -257.000000C165.000000 -342.000000,221.000000 -400.000000,312.000000 -400.000000L343.000000 -400.000000C360.000000 -400.000000,376.000000 -400.000000,376.000000 -417.000000C376.000000 -431.000000,363.000000 -431.000000,346.000000 -431.000000L311.000000 -431.000000C181.000000 -431.000000,47.000000 -331.000000,47.000000 -178.000000C47.000000 -68.000000,122.000000 11.000000,228.000000 11.000000C293.000000 11.000000,358.000000 -29.000000,358.000000 -40.000000C358.000000 -43.000000,357.000000 -54.000000,348.000000 -54.000000C346.000000 -54.000000,344.000000 -54.000000,335.000000 -48.000000C304.000000 -28.000000,267.000000 -11.000000,230.000000 -11.000000C172.000000 -11.000000,122.000000 -53.000000,122.000000 -141.000000C122.000000 -176.000000,130.000000 -214.000000,133.000000 -226.000000"></path>
    </g>
    <g transform="scale(0.009963,0.009963)" id="GLYPHcmmi10_30">
      <path style="fill-rule: evenodd;" d="M437.000000 -670.000000C437.000000 -672.000000,440.000000 -683.000000,440.000000 -684.000000C440.000000 -685.000000,440.000000 -694.000000,428.000000 -694.000000C418.000000 -694.000000,417.000000 -691.000000,413.000000 -674.000000L355.000000 -443.000000C196.000000 -438.000000,49.000000 -305.000000,49.000000 -169.000000C49.000000 -74.000000,119.000000 5.000000,241.000000 12.000000C233.000000 43.000000,226.000000 75.000000,218.000000 106.000000C206.000000 153.000000,196.000000 191.000000,196.000000 194.000000C196.000000 204.000000,203.000000 205.000000,208.000000 205.000000C213.000000 205.000000,215.000000 204.000000,218.000000 201.000000C220.000000 199.000000,226.000000 175.000000,229.000000 161.000000L267.000000 12.000000C428.000000 7.000000,573.000000 -128.000000,573.000000 -262.000000C573.000000 -341.000000,520.000000 -433.000000,381.000000 -443.000000M246.000000 -10.000000C186.000000 -13.000000,114.000000 -48.000000,114.000000 -148.000000C114.000000 -268.000000,200.000000 -408.000000,349.000000 -421.000000M375.000000 -421.000000C451.000000 -417.000000,508.000000 -371.000000,508.000000 -283.000000C508.000000 -165.000000,422.000000 -22.000000,272.000000 -10.000000"></path>
    </g>
    <g transform="scale(0.009963,0.009963)" id="GLYPHcmmi10_112">
      <path style="fill-rule: evenodd;" d="M45.000000 122.000000C37.000000 156.000000,35.000000 163.000000,-9.000000 163.000000C-21.000000 163.000000,-32.000000 163.000000,-32.000000 182.000000C-32.000000 190.000000,-27.000000 194.000000,-19.000000 194.000000C8.000000 194.000000,37.000000 191.000000,65.000000 191.000000C98.000000 191.000000,132.000000 194.000000,164.000000 194.000000C169.000000 194.000000,182.000000 194.000000,182.000000 174.000000C182.000000 163.000000,172.000000 163.000000,158.000000 163.000000C108.000000 163.000000,108.000000 156.000000,108.000000 147.000000C108.000000 135.000000,150.000000 -28.000000,157.000000 -53.000000C170.000000 -24.000000,198.000000 11.000000,249.000000 11.000000C365.000000 11.000000,490.000000 -135.000000,490.000000 -282.000000C490.000000 -376.000000,433.000000 -442.000000,357.000000 -442.000000C307.000000 -442.000000,259.000000 -406.000000,226.000000 -367.000000C216.000000 -421.000000,173.000000 -442.000000,136.000000 -442.000000C90.000000 -442.000000,71.000000 -403.000000,62.000000 -385.000000C44.000000 -351.000000,31.000000 -291.000000,31.000000 -288.000000C31.000000 -278.000000,41.000000 -278.000000,43.000000 -278.000000C53.000000 -278.000000,54.000000 -279.000000,60.000000 -301.000000C77.000000 -372.000000,97.000000 -420.000000,133.000000 -420.000000C150.000000 -420.000000,164.000000 -412.000000,164.000000 -374.000000C164.000000 -351.000000,161.000000 -340.000000,157.000000 -323.000000M221.000000 -312.000000C228.000000 -339.000000,255.000000 -367.000000,273.000000 -382.000000C308.000000 -413.000000,337.000000 -420.000000,354.000000 -420.000000C394.000000 -420.000000,418.000000 -385.000000,418.000000 -326.000000C418.000000 -267.000000,385.000000 -152.000000,367.000000 -114.000000C333.000000 -44.000000,285.000000 -11.000000,248.000000 -11.000000C182.000000 -11.000000,169.000000 -94.000000,169.000000 -100.000000C169.000000 -102.000000,169.000000 -104.000000,172.000000 -116.000000"></path>
    </g>
    <g transform="scale(0.009963,0.009963)" id="GLYPHcmmi10_113">
      <path style="fill-rule: evenodd;" d="M452.000000 -431.000000C452.000000 -435.000000,449.000000 -441.000000,442.000000 -441.000000C431.000000 -441.000000,391.000000 -401.000000,374.000000 -372.000000C352.000000 -426.000000,313.000000 -442.000000,281.000000 -442.000000C163.000000 -442.000000,40.000000 -294.000000,40.000000 -149.000000C40.000000 -51.000000,99.000000 11.000000,172.000000 11.000000C215.000000 11.000000,254.000000 -13.000000,290.000000 -49.000000C281.000000 -14.000000,248.000000 121.000000,245.000000 130.000000C237.000000 158.000000,229.000000 162.000000,173.000000 163.000000C160.000000 163.000000,150.000000 163.000000,150.000000 183.000000C150.000000 184.000000,150.000000 194.000000,163.000000 194.000000C195.000000 194.000000,230.000000 191.000000,263.000000 191.000000C297.000000 191.000000,333.000000 194.000000,366.000000 194.000000C371.000000 194.000000,384.000000 194.000000,384.000000 174.000000C384.000000 163.000000,374.000000 163.000000,358.000000 163.000000C310.000000 163.000000,310.000000 156.000000,310.000000 147.000000C310.000000 140.000000,312.000000 134.000000,314.000000 125.000000M175.000000 -11.000000C115.000000 -11.000000,111.000000 -88.000000,111.000000 -105.000000C111.000000 -153.000000,140.000000 -262.000000,157.000000 -304.000000C188.000000 -378.000000,240.000000 -420.000000,281.000000 -420.000000C346.000000 -420.000000,360.000000 -339.000000,360.000000 -332.000000C360.000000 -326.000000,305.000000 -107.000000,302.000000 -103.000000C287.000000 -75.000000,231.000000 -11.000000,175.000000 -11.000000"></path>
    </g>
    <g transform="scale(0.009963,0.009963)" id="GLYPHcmmi10_114">
      <path style="fill-rule: evenodd;" d="M88.000000 -59.000000C85.000000 -44.000000,79.000000 -21.000000,79.000000 -16.000000C79.000000 2.000000,93.000000 11.000000,108.000000 11.000000C120.000000 11.000000,138.000000 3.000000,145.000000 -17.000000C147.000000 -21.000000,181.000000 -157.000000,185.000000 -175.000000C193.000000 -208.000000,211.000000 -278.000000,217.000000 -305.000000C221.000000 -318.000000,249.000000 -365.000000,273.000000 -387.000000C281.000000 -394.000000,310.000000 -420.000000,353.000000 -420.000000C379.000000 -420.000000,394.000000 -408.000000,395.000000 -408.000000C365.000000 -403.000000,343.000000 -379.000000,343.000000 -353.000000C343.000000 -337.000000,354.000000 -318.000000,381.000000 -318.000000C408.000000 -318.000000,436.000000 -341.000000,436.000000 -377.000000C436.000000 -412.000000,404.000000 -442.000000,353.000000 -442.000000C288.000000 -442.000000,244.000000 -393.000000,225.000000 -365.000000C217.000000 -410.000000,181.000000 -442.000000,134.000000 -442.000000C88.000000 -442.000000,69.000000 -403.000000,60.000000 -385.000000C42.000000 -351.000000,29.000000 -291.000000,29.000000 -288.000000C29.000000 -278.000000,39.000000 -278.000000,41.000000 -278.000000C51.000000 -278.000000,52.000000 -279.000000,58.000000 -301.000000C75.000000 -372.000000,95.000000 -420.000000,131.000000 -420.000000C148.000000 -420.000000,162.000000 -412.000000,162.000000 -374.000000C162.000000 -353.000000,159.000000 -342.000000,146.000000 -290.000000"></path>
    </g>
    <g transform="scale(0.009963,0.009963)" id="GLYPHcmmi10_115">
      <path style="fill-rule: evenodd;" d="M391.000000 -374.000000C363.000000 -373.000000,343.000000 -351.000000,343.000000 -329.000000C343.000000 -315.000000,352.000000 -300.000000,374.000000 -300.000000C396.000000 -300.000000,420.000000 -317.000000,420.000000 -356.000000C420.000000 -401.000000,377.000000 -442.000000,301.000000 -442.000000C169.000000 -442.000000,132.000000 -340.000000,132.000000 -296.000000C132.000000 -218.000000,206.000000 -203.000000,235.000000 -197.000000C287.000000 -187.000000,339.000000 -176.000000,339.000000 -121.000000C339.000000 -95.000000,316.000000 -11.000000,196.000000 -11.000000C182.000000 -11.000000,105.000000 -11.000000,82.000000 -64.000000C120.000000 -59.000000,145.000000 -89.000000,145.000000 -117.000000C145.000000 -140.000000,129.000000 -152.000000,108.000000 -152.000000C82.000000 -152.000000,52.000000 -131.000000,52.000000 -86.000000C52.000000 -29.000000,109.000000 11.000000,195.000000 11.000000C357.000000 11.000000,396.000000 -110.000000,396.000000 -155.000000C396.000000 -191.000000,377.000000 -216.000000,365.000000 -228.000000C338.000000 -256.000000,309.000000 -261.000000,265.000000 -270.000000C229.000000 -278.000000,189.000000 -285.000000,189.000000 -330.000000C189.000000 -359.000000,213.000000 -420.000000,301.000000 -420.000000C326.000000 -420.000000,376.000000 -413.000000,391.000000 -374.000000"></path>
    </g>
  </defs>
  <path d="M140.576004 278.428375L240.793793 178.210587" style="stroke:rgb(0.000000%,0.000000%,0.000000%); stroke-width: 0.500000;stroke-linecap: round;stroke-linejoin: round;stroke-miterlimit: 10.000000;fill: none;"></path>
  <path d="M140.576004 278.428375L118.270309 138.460861" style="stroke:rgb(0.000000%,0.000000%,0.000000%); stroke-width: 0.500000;stroke-linecap: round;stroke-linejoin: round;stroke-miterlimit: 10.000000;fill: none;"></path>
  <path d="M240.793793 178.210587L118.270309 138.460861" style="stroke:rgb(0.000000%,0.000000%,0.000000%); stroke-width: 0.500000;stroke-linecap: round;stroke-linejoin: round;stroke-miterlimit: 10.000000;fill: none;"></path>
  <path d="M240.793793 178.210587L14.171616 214.323151" style="stroke:rgb(0.000000%,0.000000%,0.000000%); stroke-width: 0.500000;stroke-linecap: round;stroke-linejoin: round;stroke-miterlimit: 10.000000;fill: none;"></path>
  <path d="M240.793793 178.210587L78.545380 15.930084" style="stroke:rgb(0.000000%,0.000000%,0.000000%); stroke-width: 0.500000;stroke-linecap: round;stroke-linejoin: round;stroke-miterlimit: 10.000000;fill: none;"></path>
  <path d="M118.270309 138.460861L14.171616 214.323151" style="stroke:rgb(0.000000%,0.000000%,0.000000%); stroke-width: 0.500000;stroke-linecap: round;stroke-linejoin: round;stroke-miterlimit: 10.000000;fill: none;"></path>
  <path d="M118.270309 138.460861L78.545380 15.930084" style="stroke:rgb(0.000000%,0.000000%,0.000000%); stroke-width: 0.500000;stroke-linecap: round;stroke-linejoin: round;stroke-miterlimit: 10.000000;fill: none;"></path>
  <path d="M14.171616 214.323151L78.545380 15.930084" style="stroke:rgb(0.000000%,0.000000%,0.000000%); stroke-width: 0.500000;stroke-linecap: round;stroke-linejoin: round;stroke-miterlimit: 10.000000;fill: none;"></path>
  <path d="M145.557312 278.428375C145.557312 277.107193,145.032394 275.840271,144.098251 274.906128C143.164108 273.971985,141.897186 273.447067,140.576004 273.447067C139.254822 273.447067,137.987900 273.971985,137.053757 274.906128C136.119614 275.840271,135.594696 277.107193,135.594696 278.428375C135.594696 279.749557,136.119614 281.016479,137.053757 281.950623C137.987900 282.884766,139.254822 283.409683,140.576004 283.409683C141.897186 283.409683,143.164108 282.884766,144.098251 281.950623C145.032394 281.016479,145.557312 279.749557,145.557312 278.428375Z" style="fill: rgb(0.000000%,0.000000%,0.000000%);stroke: none;"></path>
  <path d="M245.775101 178.210587C245.775101 176.889404,245.250183 175.622482,244.316040 174.688339C243.381897 173.754196,242.114975 173.229279,240.793793 173.229279C239.472610 173.229279,238.205688 173.754196,237.271545 174.688339C236.337402 175.622482,235.812485 176.889404,235.812485 178.210587C235.812485 179.531769,236.337402 180.798691,237.271545 181.732834C238.205688 182.666977,239.472610 183.191895,240.793793 183.191895C242.114975 183.191895,243.381897 182.666977,244.316040 181.732834C245.250183 180.798691,245.775101 179.531769,245.775101 178.210587Z" style="fill: rgb(0.000000%,0.000000%,0.000000%);stroke: none;"></path>
  <g transform="matrix(2.000000,-0.000000,-0.000000,2.000000,142.675995 293.369156)" style="fill: rgb(0.000000%,0.000000%,0.000000%);">
    <use xlink:href="#GLYPHcmr10_48"></use>
  </g>
  <g transform="matrix(2.000000,-0.000000,-0.000000,2.000000,244.898575 186.884796)" style="fill: rgb(0.000000%,0.000000%,0.000000%);">
    <use xlink:href="#GLYPHcmmi10_112"></use>
  </g>
  <path d="M123.251617 138.460861C123.251617 137.139679,122.726700 135.872757,121.792557 134.938614C120.858414 134.004471,119.591492 133.479553,118.270309 133.479553C116.949127 133.479553,115.682205 134.004471,114.748062 134.938614C113.813919 135.872757,113.289001 137.139679,113.289001 138.460861C113.289001 139.782043,113.813919 141.048965,114.748062 141.983109C115.682205 142.917252,116.949127 143.442169,118.270309 143.442169C119.591492 143.442169,120.858414 142.917252,121.792557 141.983109C122.726700 141.048965,123.251617 139.782043,123.251617 138.460861Z" style="fill: rgb(0.000000%,0.000000%,0.000000%);stroke: none;"></path>
  <g transform="matrix(2.000000,-0.000000,-0.000000,2.000000,119.924088 129.686539)" style="fill: rgb(0.000000%,0.000000%,0.000000%);">
    <use xlink:href="#GLYPHcmmi10_113"></use>
  </g>
  <path d="M19.152924 214.323151C19.152924 213.001968,18.628006 211.735046,17.693863 210.800903C16.759720 209.866760,15.492798 209.341843,14.171616 209.341843C12.850433 209.341843,11.583511 209.866760,10.649368 210.800903C9.715225 211.735046,9.190308 213.001968,9.190308 214.323151C9.190308 215.644333,9.715225 216.911255,10.649368 217.845398C11.583511 218.779541,12.850433 219.304459,14.171616 219.304459C15.492798 219.304459,16.759720 218.779541,17.693863 217.845398C18.628006 216.911255,19.152924 215.644333,19.152924 214.323151Z" style="fill: rgb(0.000000%,0.000000%,0.000000%);stroke: none;"></path>
  <g transform="matrix(2.000000,-0.000000,-0.000000,2.000000,0.000000 210.940781)" style="fill: rgb(0.000000%,0.000000%,0.000000%);">
    <use xlink:href="#GLYPHcmmi10_114"></use>
  </g>
  <path d="M83.526688 15.930084C83.526688 14.608902,83.001770 13.341980,82.067627 12.407837C81.133484 11.473694,79.866562 10.948776,78.545380 10.948776C77.224197 10.948776,75.957275 11.473694,75.023132 12.407837C74.088989 13.341980,73.564072 14.608902,73.564072 15.930084C73.564072 17.251266,74.088989 18.518188,75.023132 19.452332C75.957275 20.386475,77.224197 20.911392,78.545380 20.911392C79.866562 20.911392,81.133484 20.386475,82.067627 19.452332C83.001770 18.518188,83.526688 17.251266,83.526688 15.930084Z" style="fill: rgb(0.000000%,0.000000%,0.000000%);stroke: none;"></path>
  <g transform="matrix(2.000000,-0.000000,-0.000000,2.000000,65.864517 8.579010)" style="fill: rgb(0.000000%,0.000000%,0.000000%);">
    <use xlink:href="#GLYPHcmmi10_115"></use>
  </g>
  <g transform="matrix(2.000000,-0.000000,-0.000000,2.000000,143.786926 253.058182)" style="fill: rgb(0.000000%,0.000000%,0.000000%);">
    <use xlink:href="#GLYPHcmmi10_11"></use>
  </g>
  <g transform="matrix(2.000000,-0.000000,-0.000000,2.000000,48.284897 205.668655)" style="fill: rgb(0.000000%,0.000000%,0.000000%);">
    <use xlink:href="#GLYPHcmmi10_12"></use>
  </g>
  <g transform="matrix(2.000000,-0.000000,-0.000000,2.000000,192.565308 180.119766)" style="fill: rgb(0.000000%,0.000000%,0.000000%);">
    <use xlink:href="#GLYPHcmmi10_13"></use>
  </g>
  <g transform="matrix(2.000000,-0.000000,-0.000000,2.000000,201.309937 160.525986)" style="fill: rgb(0.000000%,0.000000%,0.000000%);">
    <use xlink:href="#GLYPHcmmi10_14"></use>
  </g>
  <g transform="matrix(2.000000,-0.000000,-0.000000,2.000000,197.507294 198.868637)" style="fill: rgb(0.000000%,0.000000%,0.000000%);">
    <use xlink:href="#GLYPHcmmi10_15"></use>
  </g>
  <g transform="matrix(2.000000,-0.000000,-0.000000,2.000000,131.899582 167.721176)" style="fill: rgb(0.000000%,0.000000%,0.000000%);">
    <use xlink:href="#GLYPHcmmi10_30"></use>
  </g>
</svg>
