<?xml version="1.0"?>
<!-- Created by MetaPost 2.11 on 2026.04.13:1059 -->
<svg version="1.1" xmlns="http://www.w3.org/2000/svg" xmlns:xlink="http://www.w3.org/1999/xlink" width="283.964508" height="283.964508" viewBox="0 0 283.964508 283.964508">
<!-- Original BoundingBox: -141.982254 -141.982254 141.982254 141.982254 -->
  <defs>
    <g transform="scale(0.009963,0.009963)" id="GLYPHcmr10_48">
      <path style="fill-rule: evenodd;" d="M460.000000 -320.000000C460.000000 -400.000000,455.000000 -480.000000,420.000000 -554.000000C374.000000 -650.000000,292.000000 -666.000000,250.000000 -666.000000C190.000000 -666.000000,117.000000 -640.000000,76.000000 -547.000000C44.000000 -478.000000,39.000000 -400.000000,39.000000 -320.000000C39.000000 -245.000000,43.000000 -155.000000,84.000000 -79.000000C127.000000 2.000000,200.000000 22.000000,249.000000 22.000000C303.000000 22.000000,379.000000 1.000000,423.000000 -94.000000C455.000000 -163.000000,460.000000 -241.000000,460.000000 -320.000000M249.000000 -0.000000C210.000000 -0.000000,151.000000 -25.000000,133.000000 -121.000000C122.000000 -181.000000,122.000000 -273.000000,122.000000 -332.000000C122.000000 -396.000000,122.000000 -462.000000,130.000000 -516.000000C149.000000 -635.000000,224.000000 -644.000000,249.000000 -644.000000C282.000000 -644.000000,348.000000 -626.000000,367.000000 -527.000000C377.000000 -471.000000,377.000000 -395.000000,377.000000 -332.000000C377.000000 -257.000000,377.000000 -189.000000,366.000000 -125.000000C351.000000 -30.000000,294.000000 -0.000000,249.000000 -0.000000"></path>
    </g>
    <g transform="scale(0.009963,0.009963)" id="GLYPHcmmi10_112">
      <path style="fill-rule: evenodd;" d="M45.000000 122.000000C37.000000 156.000000,35.000000 163.000000,-9.000000 163.000000C-21.000000 163.000000,-32.000000 163.000000,-32.000000 182.000000C-32.000000 190.000000,-27.000000 194.000000,-19.000000 194.000000C8.000000 194.000000,37.000000 191.000000,65.000000 191.000000C98.000000 191.000000,132.000000 194.000000,164.000000 194.000000C169.000000 194.000000,182.000000 194.000000,182.000000 174.000000C182.000000 163.000000,172.000000 163.000000,158.000000 163.000000C108.000000 163.000000,108.000000 156.000000,108.000000 147.000000C108.000000 135.000000,150.000000 -28.000000,157.000000 -53.000000C170.000000 -24.000000,198.000000 11.000000,249.000000 11.000000C365.000000 11.000000,490.000000 -135.000000,490.000000 -282.000000C490.000000 -376.000000,433.000000 -442.000000,357.000000 -442.000000C307.000000 -442.000000,259.000000 -406.000000,226.000000 -367.000000C216.000000 -421.000000,173.000000 -442.000000,136.000000 -442.000000C90.000000 -442.000000,71.000000 -403.000000,62.000000 -385.000000C44.000000 -351.000000,31.000000 -291.000000,31.000000 -288.000000C31.000000 -278.000000,41.000000 -278.000000,43.000000 -278.000000C53.000000 -278.000000,54.000000 -279.000000,60.000000 -301.000000C77.000000 -372.000000,97.000000 -420.000000,133.000000 -420.000000C150.000000 -420.000000,164.000000 -412.000000,164.000000 -374.000000C164.000000 -351.000000,161.000000 -340.000000,157.000000 -323.000000M221.000000 -312.000000C228.000000 -339.000000,255.000000 -367.000000,273.000000 -382.000000C308.000000 -413.000000,337.000000 -420.000000,354.000000 -420.000000C394.000000 -420.000000,418.000000 -385.000000,418.000000 -326.000000C418.000000 -267.000000,385.000000 -152.000000,367.000000 -114.000000C333.000000 -44.000000,285.000000 -11.000000,248.000000 -11.000000C182.000000 -11.000000,169.000000 -94.000000,169.000000 -100.000000C169.000000 -102.000000,169.000000 -104.000000,172.000000 -116.000000"></path>
    </g>
  </defs>
  <path d="M283.714508 141.982254C283.714508 104.390854,268.779160 68.343597,242.200043 41.764465C215.620911 15.185349,179.573654 0.250000,141.982254 0.250000C104.390854 0.250000,68.343597 15.185349,41.764465 41.764465C15.185349 68.343597,0.250000 104.390854,0.250000 141.982254C0.250000 179.573654,15.185349 215.620911,41.764465 242.200043C68.343597 268.779160,104.390854 283.714508,141.982254 283.714508C179.573654 283.714508,215.620911 268.779160,242.200043 242.200043C268.779160 215.620911,283.714508 179.573654,283.714508 141.982254Z" style="stroke:rgb(0.000000%,0.000000%,0.000000%); stroke-width: 0.500000;stroke-linecap: round;stroke-linejoin: round;stroke-miterlimit: 10.000000;fill: none;"></path>
  <path d="M146.963562 141.982254C146.963562 140.661072,146.438644 139.394150,145.504501 138.460007C144.570358 137.525864,143.303436 137.000946,141.982254 137.000946C140.661072 137.000946,139.394150 137.525864,138.460007 138.460007C137.525864 139.394150,137.000946 140.661072,137.000946 141.982254C137.000946 143.303436,137.525864 144.570358,138.460007 145.504501C139.394150 146.438644,140.661072 146.963562,141.982254 146.963562C143.303436 146.963562,144.570358 146.438644,145.504501 145.504501C146.438644 144.570358,146.963562 143.303436,146.963562 141.982254Z" style="fill: rgb(0.000000%,0.000000%,0.000000%);stroke: none;"></path>
  <path d="M247.181351 41.764465C247.181351 40.443283,246.656433 39.176361,245.722290 38.242218C244.788147 37.308075,243.521225 36.783157,242.200043 36.783157C240.878860 36.783157,239.611938 37.308075,238.677795 38.242218C237.743652 39.176361,237.218735 40.443283,237.218735 41.764465C237.218735 43.085648,237.743652 44.352570,238.677795 45.286713C239.611938 46.220856,240.878860 46.745773,242.200043 46.745773C243.521225 46.745773,244.788147 46.220856,245.722290 45.286713C246.656433 44.352570,247.181351 43.085648,247.181351 41.764465Z" style="fill: rgb(0.000000%,0.000000%,0.000000%);stroke: none;"></path>
  <g transform="matrix(2.000000,-0.000000,-0.000000,2.000000,144.082245 156.923035)" style="fill: rgb(0.000000%,0.000000%,0.000000%);">
    <use xlink:href="#GLYPHcmr10_48"></use>
  </g>
  <g transform="matrix(2.000000,-0.000000,-0.000000,2.000000,246.304825 50.438675)" style="fill: rgb(0.000000%,0.000000%,0.000000%);">
    <use xlink:href="#GLYPHcmmi10_112"></use>
  </g>
</svg>
