<?xml version="1.0"?>
<!-- Created by MetaPost 2.11 on 2026.04.13:1059 -->
<svg version="1.1" xmlns="http://www.w3.org/2000/svg" xmlns:xlink="http://www.w3.org/1999/xlink" width="293.348053" height="411.009872" viewBox="0 0 293.348053 411.009872">
<!-- Original BoundingBox: -151.365799 -141.982254 141.982254 269.027618 -->
  <defs>
    <g transform="scale(0.009963,0.009963)" id="GLYPHcmr10_48">
      <path style="fill-rule: evenodd;" d="M460.000000 -320.000000C460.000000 -400.000000,455.000000 -480.000000,420.000000 -554.000000C374.000000 -650.000000,292.000000 -666.000000,250.000000 -666.000000C190.000000 -666.000000,117.000000 -640.000000,76.000000 -547.000000C44.000000 -478.000000,39.000000 -400.000000,39.000000 -320.000000C39.000000 -245.000000,43.000000 -155.000000,84.000000 -79.000000C127.000000 2.000000,200.000000 22.000000,249.000000 22.000000C303.000000 22.000000,379.000000 1.000000,423.000000 -94.000000C455.000000 -163.000000,460.000000 -241.000000,460.000000 -320.000000M249.000000 -0.000000C210.000000 -0.000000,151.000000 -25.000000,133.000000 -121.000000C122.000000 -181.000000,122.000000 -273.000000,122.000000 -332.000000C122.000000 -396.000000,122.000000 -462.000000,130.000000 -516.000000C149.000000 -635.000000,224.000000 -644.000000,249.000000 -644.000000C282.000000 -644.000000,348.000000 -626.000000,367.000000 -527.000000C377.000000 -471.000000,377.000000 -395.000000,377.000000 -332.000000C377.000000 -257.000000,377.000000 -189.000000,366.000000 -125.000000C351.000000 -30.000000,294.000000 -0.000000,249.000000 -0.000000"></path>
    </g>
    <g transform="scale(0.009963,0.009963)" id="GLYPHcmmi10_112">
      <path style="fill-rule: evenodd;" d="M45.000000 122.000000C37.000000 156.000000,35.000000 163.000000,-9.000000 163.000000C-21.000000 163.000000,-32.000000 163.000000,-32.000000 182.000000C-32.000000 190.000000,-27.000000 194.000000,-19.000000 194.000000C8.000000 194.000000,37.000000 191.000000,65.000000 191.000000C98.000000 191.000000,132.000000 194.000000,164.000000 194.000000C169.000000 194.000000,182.000000 194.000000,182.000000 174.000000C182.000000 163.000000,172.000000 163.000000,158.000000 163.000000C108.000000 163.000000,108.000000 156.000000,108.000000 147.000000C108.000000 135.000000,150.000000 -28.000000,157.000000 -53.000000C170.000000 -24.000000,198.000000 11.000000,249.000000 11.000000C365.000000 11.000000,490.000000 -135.000000,490.000000 -282.000000C490.000000 -376.000000,433.000000 -442.000000,357.000000 -442.000000C307.000000 -442.000000,259.000000 -406.000000,226.000000 -367.000000C216.000000 -421.000000,173.000000 -442.000000,136.000000 -442.000000C90.000000 -442.000000,71.000000 -403.000000,62.000000 -385.000000C44.000000 -351.000000,31.000000 -291.000000,31.000000 -288.000000C31.000000 -278.000000,41.000000 -278.000000,43.000000 -278.000000C53.000000 -278.000000,54.000000 -279.000000,60.000000 -301.000000C77.000000 -372.000000,97.000000 -420.000000,133.000000 -420.000000C150.000000 -420.000000,164.000000 -412.000000,164.000000 -374.000000C164.000000 -351.000000,161.000000 -340.000000,157.000000 -323.000000M221.000000 -312.000000C228.000000 -339.000000,255.000000 -367.000000,273.000000 -382.000000C308.000000 -413.000000,337.000000 -420.000000,354.000000 -420.000000C394.000000 -420.000000,418.000000 -385.000000,418.000000 -326.000000C418.000000 -267.000000,385.000000 -152.000000,367.000000 -114.000000C333.000000 -44.000000,285.000000 -11.000000,248.000000 -11.000000C182.000000 -11.000000,169.000000 -94.000000,169.000000 -100.000000C169.000000 -102.000000,169.000000 -104.000000,172.000000 -116.000000"></path>
    </g>
    <g transform="scale(0.009963,0.009963)" id="GLYPHcmmi10_113">
      <path style="fill-rule: evenodd;" d="M452.000000 -431.000000C452.000000 -435.000000,449.000000 -441.000000,442.000000 -441.000000C431.000000 -441.000000,391.000000 -401.000000,374.000000 -372.000000C352.000000 -426.000000,313.000000 -442.000000,281.000000 -442.000000C163.000000 -442.000000,40.000000 -294.000000,40.000000 -149.000000C40.000000 -51.000000,99.000000 11.000000,172.000000 11.000000C215.000000 11.000000,254.000000 -13.000000,290.000000 -49.000000C281.000000 -14.000000,248.000000 121.000000,245.000000 130.000000C237.000000 158.000000,229.000000 162.000000,173.000000 163.000000C160.000000 163.000000,150.000000 163.000000,150.000000 183.000000C150.000000 184.000000,150.000000 194.000000,163.000000 194.000000C195.000000 194.000000,230.000000 191.000000,263.000000 191.000000C297.000000 191.000000,333.000000 194.000000,366.000000 194.000000C371.000000 194.000000,384.000000 194.000000,384.000000 174.000000C384.000000 163.000000,374.000000 163.000000,358.000000 163.000000C310.000000 163.000000,310.000000 156.000000,310.000000 147.000000C310.000000 140.000000,312.000000 134.000000,314.000000 125.000000M175.000000 -11.000000C115.000000 -11.000000,111.000000 -88.000000,111.000000 -105.000000C111.000000 -153.000000,140.000000 -262.000000,157.000000 -304.000000C188.000000 -378.000000,240.000000 -420.000000,281.000000 -420.000000C346.000000 -420.000000,360.000000 -339.000000,360.000000 -332.000000C360.000000 -326.000000,305.000000 -107.000000,302.000000 -103.000000C287.000000 -75.000000,231.000000 -11.000000,175.000000 -11.000000"></path>
    </g>
    <g transform="scale(0.009963,0.009963)" id="GLYPHcmmi10_114">
      <path style="fill-rule: evenodd;" d="M88.000000 -59.000000C85.000000 -44.000000,79.000000 -21.000000,79.000000 -16.000000C79.000000 2.000000,93.000000 11.000000,108.000000 11.000000C120.000000 11.000000,138.000000 3.000000,145.000000 -17.000000C147.000000 -21.000000,181.000000 -157.000000,185.000000 -175.000000C193.000000 -208.000000,211.000000 -278.000000,217.000000 -305.000000C221.000000 -318.000000,249.000000 -365.000000,273.000000 -387.000000C281.000000 -394.000000,310.000000 -420.000000,353.000000 -420.000000C379.000000 -420.000000,394.000000 -408.000000,395.000000 -408.000000C365.000000 -403.000000,343.000000 -379.000000,343.000000 -353.000000C343.000000 -337.000000,354.000000 -318.000000,381.000000 -318.000000C408.000000 -318.000000,436.000000 -341.000000,436.000000 -377.000000C436.000000 -412.000000,404.000000 -442.000000,353.000000 -442.000000C288.000000 -442.000000,244.000000 -393.000000,225.000000 -365.000000C217.000000 -410.000000,181.000000 -442.000000,134.000000 -442.000000C88.000000 -442.000000,69.000000 -403.000000,60.000000 -385.000000C42.000000 -351.000000,29.000000 -291.000000,29.000000 -288.000000C29.000000 -278.000000,39.000000 -278.000000,41.000000 -278.000000C51.000000 -278.000000,52.000000 -279.000000,58.000000 -301.000000C75.000000 -372.000000,95.000000 -420.000000,131.000000 -420.000000C148.000000 -420.000000,162.000000 -412.000000,162.000000 -374.000000C162.000000 -353.000000,159.000000 -342.000000,146.000000 -290.000000"></path>
    </g>
  </defs>
  <path d="M293.098053 269.027618C293.098053 231.436218,278.162704 195.388962,251.583588 168.809830C225.004456 142.230713,188.957199 127.295364,151.365799 127.295364C113.774399 127.295364,77.727142 142.230713,51.148010 168.809830C24.568893 195.388962,9.633545 231.436218,9.633545 269.027618C9.633545 306.619019,24.568893 342.666275,51.148010 369.245407C77.727142 395.824524,113.774399 410.759872,151.365799 410.759872C188.957199 410.759872,225.004456 395.824524,251.583588 369.245407C278.162704 342.666275,293.098053 306.619019,293.098053 269.027618Z" style="stroke:rgb(0.000000%,0.000000%,0.000000%); stroke-width: 0.500000;stroke-linecap: round;stroke-linejoin: round;stroke-miterlimit: 10.000000;fill: none;"></path>
  <path d="M156.347107 269.027618C156.347107 267.706436,155.822189 266.439514,154.888046 265.505371C153.953903 264.571228,152.686981 264.046310,151.365799 264.046310C150.044617 264.046310,148.777695 264.571228,147.843552 265.505371C146.909409 266.439514,146.384491 267.706436,146.384491 269.027618C146.384491 270.348801,146.909409 271.615723,147.843552 272.549866C148.777695 273.484009,150.044617 274.008926,151.365799 274.008926C152.686981 274.008926,153.953903 273.484009,154.888046 272.549866C155.822189 271.615723,156.347107 270.348801,156.347107 269.027618Z" style="fill: rgb(0.000000%,0.000000%,0.000000%);stroke: none;"></path>
  <path d="M256.564896 168.809830C256.564896 167.488647,256.039978 166.221725,255.105835 165.287582C254.171692 164.353439,252.904770 163.828522,251.583588 163.828522C250.262405 163.828522,248.995483 164.353439,248.061340 165.287582C247.127197 166.221725,246.602280 167.488647,246.602280 168.809830C246.602280 170.131012,247.127197 171.397934,248.061340 172.332077C248.995483 173.266220,250.262405 173.791138,251.583588 173.791138C252.904770 173.791138,254.171692 173.266220,255.105835 172.332077C256.039978 171.397934,256.564896 170.131012,256.564896 168.809830Z" style="fill: rgb(0.000000%,0.000000%,0.000000%);stroke: none;"></path>
  <g transform="matrix(2.000000,-0.000000,-0.000000,2.000000,153.465790 283.968399)" style="fill: rgb(0.000000%,0.000000%,0.000000%);">
    <use xlink:href="#GLYPHcmr10_48"></use>
  </g>
  <g transform="matrix(2.000000,-0.000000,-0.000000,2.000000,255.688370 177.484039)" style="fill: rgb(0.000000%,0.000000%,0.000000%);">
    <use xlink:href="#GLYPHcmmi10_112"></use>
  </g>
  <path d="M134.041412 129.060104C134.041412 127.738922,133.516495 126.472000,132.582352 125.537857C131.648209 124.603714,130.381287 124.078796,129.060104 124.078796C127.738922 124.078796,126.472000 124.603714,125.537857 125.537857C124.603714 126.472000,124.078796 127.738922,124.078796 129.060104C124.078796 130.381287,124.603714 131.648209,125.537857 132.582352C126.472000 133.516495,127.738922 134.041412,129.060104 134.041412C130.381287 134.041412,131.648209 133.516495,132.582352 132.582352C133.516495 131.648209,134.041412 130.381287,134.041412 129.060104Z" style="fill: rgb(0.000000%,0.000000%,0.000000%);stroke: none;"></path>
  <g transform="matrix(2.000000,-0.000000,-0.000000,2.000000,130.713882 120.285782)" style="fill: rgb(0.000000%,0.000000%,0.000000%);">
    <use xlink:href="#GLYPHcmmi10_113"></use>
  </g>
  <path d="M257.870209 129.060104C257.870209 94.896027,244.296555 62.135300,220.140732 37.979477C195.984909 13.823654,163.224182 0.250000,129.060104 0.250000C94.896027 0.250000,62.135300 13.823654,37.979477 37.979477C13.823654 62.135300,0.250000 94.896027,0.250000 129.060104C0.250000 163.224182,13.823654 195.984909,37.979477 220.140732C62.135300 244.296555,94.896027 257.870209,129.060104 257.870209C163.224182 257.870209,195.984909 244.296555,220.140732 220.140732C244.296555 195.984909,257.870209 163.224182,257.870209 129.060104Z" style="stroke:rgb(0.000000%,0.000000%,0.000000%); stroke-width: 0.500000;stroke-linecap: round;stroke-linejoin: round;stroke-miterlimit: 10.000000;fill: none;"></path>
  <path d="M29.942719 204.922394C29.942719 203.601212,29.417801 202.334290,28.483658 201.400146C27.549515 200.466003,26.282593 199.941086,24.961411 199.941086C23.640228 199.941086,22.373306 200.466003,21.439163 201.400146C20.505020 202.334290,19.980103 203.601212,19.980103 204.922394C19.980103 206.243576,20.505020 207.510498,21.439163 208.444641C22.373306 209.378784,23.640228 209.903702,24.961411 209.903702C26.282593 209.903702,27.549515 209.378784,28.483658 208.444641C29.417801 207.510498,29.942719 206.243576,29.942719 204.922394Z" style="fill: rgb(0.000000%,0.000000%,0.000000%);stroke: none;"></path>
  <g transform="matrix(2.000000,-0.000000,-0.000000,2.000000,10.789795 201.540024)" style="fill: rgb(0.000000%,0.000000%,0.000000%);">
    <use xlink:href="#GLYPHcmmi10_114"></use>
  </g>
</svg>
